# xmcd CD database file
#
# Track frame offsets:
#	150
#	21127
#	31455
#	46742
#
# Disc length: 861 seconds
#
# Revision: 0
# Processed by: cddbd v1.5.1PL0 Copyright (c) Steve Scherf et al.
# Submitted via: CDex 1.60beta1
#
DISCID=26035b04
DTITLE=Holly Cole Trio - Blame It On My Youth - Promo CD
DYEAR=1991
DGENRE=Jazz
TTITLE0=Calling You
TTITLE1=If I Were A Bell
TTITLE2=Trust In Me
TTITLE3=Purple Avenue
EXTD=YEAR: 1991
EXTT0=
EXTT1=
EXTT2=
EXTT3=
PLAYORDER=
